/* XPM */
static char *result[] = {
/* columns rows colors chars-per-pixel */
"35 35 144 2 ",
"   c #0E0000",
".  c #110000",
"X  c #1B0000",
"o  c #14182E",
"O  c #12172D",
"+  c #161A31",
"@  c #003748",
"#  c #003949",
"$  c #163F48",
"%  c #164049",
"&  c #004756",
"*  c #184C56",
"=  c #01616D",
"-  c #19646D",
";  c #006672",
":  c #026874",
">  c #006A78",
",  c #176B75",
"<  c #1A6A74",
"1  c #136E79",
"2  c #1B6E79",
"3  c #0C707C",
"4  c #06707C",
"5  c #1B717B",
"6  c #007483",
"7  c #1C7C83",
"8  c #0077E7",
"9  c #007CE6",
"0  c #007DE8",
"q  c #00818E",
"w  c #1E878E",
"e  c #1D888F",
"r  c #008F9D",
"t  c #008190",
"y  c #1D8990",
"u  c #20969D",
"i  c #0096A5",
"p  c #169DA5",
"a  c #2095A4",
"s  c #229EA5",
"d  c #219FAA",
"f  c #3D9AA4",
"g  c #00A1AD",
"h  c #00A8B6",
"j  c #00ACBC",
"k  c #22A0A7",
"l  c #23A5AD",
"z  c #24AFB6",
"x  c #25B6BC",
"c  c #00B9C9",
"v  c #23B4C6",
"b  c #0083E7",
"n  c #0083E8",
"m  c #008BE8",
"M  c #0D8EE8",
"N  c #0093E9",
"B  c #009DED",
"V  c #0F93E9",
"C  c #2E97E9",
"Z  c #00A2ED",
"A  c #0BA5ED",
"S  c #0EA8EC",
"D  c #15B2EC",
"F  c #00BCF5",
"G  c #57BEC6",
"H  c #499AE8",
"J  c #5D9EE8",
"K  c #6AA3E8",
"L  c #6FADE9",
"P  c #70A6E7",
"I  c #6CBCEC",
"U  c #00C5CF",
"Y  c #16C2CA",
"T  c #00C5D3",
"R  c #27C2CA",
"E  c #2AC8CF",
"W  c #2DC4CA",
"Q  c #29CCD3",
"!  c #24C2D9",
"~  c #26CADE",
"^  c #1DC2EE",
"/  c #00D4E4",
"(  c #00DFEC",
")  c #1DDCE5",
"_  c #0AC0F6",
"`  c #1AC0F4",
"'  c #00D5FB",
"]  c #01DAFF",
"[  c #1EDBFF",
"{  c #24CAE7",
"}  c #20C6EB",
"|  c #29D7E4",
" . c #2ADBE4",
".. c #28DAEF",
"X. c #30DEE5",
"o. c #23D1F0",
"O. c #23D7F9",
"+. c #23DBFE",
"@. c #00E1EE",
"#. c #1AE8FF",
"$. c #1AE5FC",
"%. c #2DE4ED",
"&. c #31E4EC",
"*. c #2CE8F5",
"=. c #29E5FB",
"-. c #22ECFF",
";. c #2BECFD",
":. c #2DF0FD",
">. c #68D8DE",
",. c #7DD7D9",
"<. c #52DEF9",
"1. c #62CEF3",
"2. c #40E9FC",
"3. c #55F0FF",
"4. c #73E9EF",
"5. c #76EAFC",
"6. c #67F7FF",
"7. c #73FAFF",
"8. c #76F4FB",
"9. c #8DB1E7",
"0. c #A0BDE7",
"q. c #90DFF3",
"w. c #A7C8E8",
"e. c #B1C4E6",
"r. c #A1D3EC",
"t. c #97E9E6",
"y. c #93F6FF",
"u. c #A6F5F0",
"i. c #A5FDFF",
"p. c #ABFCF8",
"a. c #B4F0F5",
"s. c #B8F6EA",
"d. c #C8D4E6",
"f. c #C9E9EC",
"g. c #D0E0E7",
"h. c #CCFEEE",
"j. c #CBFDF5",
"k. c #D2FFF2",
"l. c #E1E7E5",
"z. c #EBF3E7",
"x. c #E2FBEC",
"c. c #ECFFEB",
"v. c #F5FFE8",
"b. c None",
/* pixels */
"b.b.b.b.b.b.b.b.b.b.. . . . . . . . . . . . . . . b.b.b.b.b.b.b.b.b.b.",
"b.b.b.b.b.b.b.b.b.b.. . . . . . . . . . . . . . . b.b.b.b.b.b.b.b.b.b.",
"b.b.b.b.b.b.b.b.b.b.O o o + + + o o o + + + o o o b.b.b.b.b.b.b.b.b.b.",
"b.b.b.b.b.b.b.b.b.b.= : : 4 3 1 , < < 2 5 5 < - - b.b.b.b.b.b.b.b.b.b.",
"b.b.b.b.b.b.b.b.# : t r i h g i p s k l l l s u e 5 % b.b.b.b.b.b.b.b.",
"b.b.b.b.b.b.b.  @ 6 i j c T T U Y R W W Q Q W x k 7 %   b.b.b.b.b.b.b.",
"b.b.b.b.b.b.X . & q h U / @.( ( )  .X.&.&.&.&.Q z w * .   b.b.b.b.b.b.",
"b.b.b.b.b.  . o 2 d R | *.:.:.;.*.*.*.;.:.:.*.| R d 2 O . . b.b.b.b.b.",
"b.b.b.b.# @ & 2 f G >.4.8.7.6.3.2.=.#.#.-.;.=...~ v a 2 * $ % b.b.b.b.",
"b.b.b.b.: 6 t d G ,.t.u.p.i.y.5.<.O.' ' ] [ O.o.{ ! v d w 7 5 b.b.b.b.",
". . O = q i h R >.t.s.h.k.j.a.q.1.D F F F _ ` ^ ^ { ~ R z s w - o . . ",
". . o ; r j T | 4.u.h.x.c.x.f.r.1.S B B Z Z S D ^ o... .Q x u < o . . ",
". . O : i c / *.8.p.k.c.v.z.g.w.P N n b n m N S ` O.=.*. .R s < + . . ",
". . + 3 g T @.:.7.i.j.x.z.l.d.0.P m 0 8 8 0 m A ` +.;.:.%.Q l 5 + . . ",
". . + 3 g T @.:.6.y.a.f.g.d.e.9.J m b 8 8 0 N A ` =.;.:.%.Q l 5 + . . ",
". . + 1 g U ( ;.3.5.q.r.w.0.9.P H m m n n n N S D [ =.;.%.Q k 5 + . . ",
". . o < p Y ) *.2.<.1.I L K J H C N N m m m N S ` O.=.*.%.R k < o . . ",
". . o < k R  .*.;.+.D S N m m m N N N N m m N S ` O.=.*.| R s < o . . ",
". . o < k W &.&.-.' F B m 0 n m m N V V m m N S ` O.=.*.%.R k < o . . ",
". . + 5 l W &.:.$.' F B n 8 8 n m N M M b b N A ` O.;.;.%.E k 2 + . . ",
". . + 5 l Q *.:.-.] F Z n 8 8 n m m m n b b m A ` +.-.:.%.Q l 5 + . . ",
". . + 5 l Q &.:.=.[ _ Z m 0 n n m m m n b 9 m A ` +.;.:.%.E l 5 + . . ",
". . + 2 s v  .*.=.O.` S N m N N N N N N m m N S ` O.=.*. .R k < o . . ",
". . o < u x Q  ...o.^ D S A A S S S S S A A S D ` o. . .Q x u < o . . ",
". . o - y k z R ~ { } } D ` ` D ` ` ` ` ` ` ` ` } { ~ v x k y - o . . ",
"b.b.b.b.5 7 w d v ! { o.+.=.+.+.O.O.O.+.+.+.O.o.{ ! v d e 7 5 b.b.b.b.",
"b.b.b.b.% % * 2 a v ~ ..=.;.;.;.=.=.=.=.:.;.=...~ v a 2 * % % b.b.b.b.",
"b.b.b.b.b.. . o 2 p R  .*.;.:.;.*.*.*.;.:.:.*. .R k 5 + .   b.b.b.b.b.",
"b.b.b.b.b.b.    * e z Q  .%.%.%.%. . .%.%.%. .Q z w * .   b.b.b.b.b.b.",
"b.b.b.b.b.b.b.  % 7 k x R Q Q Q R R R E Q Q R x s 7 $   b.b.b.b.b.b.b.",
"b.b.b.b.b.b.b.b.% 5 e u s l l k s s s k l l s u y 5 % b.b.b.b.b.b.b.b.",
"b.b.b.b.b.b.b.b.b.b.- < , 5 5 5 < < < 5 5 5 < < - b.b.b.b.b.b.b.b.b.b.",
"b.b.b.b.b.b.b.b.b.b.O o o + + + o o + + + + o o o b.b.b.b.b.b.b.b.b.b.",
"b.b.b.b.b.b.b.b.b.b.. . . . . . . . . . . . . . . b.b.b.b.b.b.b.b.b.b.",
"b.b.b.b.b.b.b.b.b.b.. . . . . . . . . . . . . . . b.b.b.b.b.b.b.b.b.b."
};
