/* XPM */
static char *result[] = {
/* columns rows colors chars-per-pixel */
"35 30 173 2 ",
"   c #000001",
".  c #000016",
"X  c #01021C",
"o  c #38040D",
"O  c #290F1F",
"+  c #000025",
"@  c #00002A",
"#  c #080E24",
"$  c #0D1127",
"%  c #00102C",
"&  c #0E1329",
"*  c #11152B",
"=  c #1E182D",
"-  c #000034",
";  c #231A2C",
":  c #002337",
">  c #1E2239",
",  c #252234",
"<  c #23273F",
"1  c #3C2C3A",
"2  c #3D333E",
"3  c #43001F",
"4  c #5A0015",
"5  c #430020",
"6  c #481F33",
"7  c #63002B",
"8  c #75122A",
"9  c #5D2C30",
"0  c #49393C",
"q  c #58383E",
"w  c #76302C",
"e  c #6C3A3D",
"r  c #7D3B36",
"t  c #000D42",
"y  c #000651",
"u  c #000854",
"i  c #001453",
"p  c #001B52",
"a  c #032145",
"s  c #002658",
"d  c #002E59",
"f  c #052955",
"g  c #102F56",
"h  c #05305B",
"j  c #13325A",
"k  c #252943",
"l  c #292D48",
"z  c #2D314D",
"x  c #3B3649",
"c  c #2D395C",
"v  c #26375C",
"b  c #323653",
"n  c #373C5A",
"m  c #3A3F5E",
"M  c #353A57",
"N  c #383F60",
"B  c #333E62",
"V  c #403647",
"C  c #4F3741",
"Z  c #513F41",
"A  c #5A384B",
"S  c #583F5B",
"D  c #653A41",
"F  c #673741",
"G  c #3C405E",
"H  c #3C4261",
"J  c #006578",
"K  c #5D4A49",
"L  c #40405C",
"P  c #4A4052",
"I  c #684F4E",
"U  c #794249",
"Y  c #68564E",
"T  c #795E54",
"R  c #484660",
"E  c #5B5265",
"W  c #53546C",
"Q  c #605867",
"!  c #6F5D69",
"~  c #715161",
"^  c #5F616B",
"/  c #78626A",
"(  c #736A78",
")  c #821427",
"_  c #872838",
"`  c #86484D",
"'  c #944748",
"]  c #95524F",
"[  c #8D4C5D",
"{  c #924B56",
"}  c #8C545E",
"|  c #A75D5B",
" . c #AF5E55",
".. c #8D6C5F",
"X. c #846658",
"o. c #97625D",
"O. c #AC625A",
"+. c #B5665D",
"@. c #926D60",
"#. c #947264",
"$. c #98756B",
"%. c #9B6971",
"&. c #887579",
"*. c #9C7B79",
"=. c #A26060",
"-. c #AE6869",
";. c #A37B69",
":. c #B37868",
">. c #A26E76",
",. c #A27D79",
"<. c #C36A5B",
"1. c #C16B62",
"2. c #C97C6C",
"3. c #C47268",
"4. c #AA816D",
"5. c #B2836A",
"6. c #A6827B",
"7. c #B68A76",
"8. c #B58975",
"9. c #BD927C",
"0. c #CE8373",
"q. c #D68B7A",
"w. c #56728D",
"e. c #6C6F86",
"r. c #379CB0",
"t. c #33A0B4",
"y. c #488BA2",
"u. c #87818C",
"i. c #8B9298",
"p. c #A48F88",
"a. c #B68D82",
"s. c #B1868D",
"d. c #BA9081",
"f. c #9CA4AE",
"g. c #8DA6B6",
"h. c #CC9B84",
"j. c #CB9C8A",
"k. c #C69781",
"l. c #D79882",
"z. c #DF9F84",
"x. c #D4A186",
"c. c #D7A18A",
"v. c #DFAA92",
"b. c #ECA68B",
"n. c #EEAA8E",
"m. c #E4AE92",
"M. c #EAAD91",
"N. c #E3AF98",
"B. c #E6B098",
"V. c #EDB396",
"C. c #F4BB9B",
"Z. c #FABE9E",
"A. c #F3B395",
"S. c #C8A5AA",
"D. c #C4B7BF",
"F. c #CDABB0",
"G. c #E3B5A9",
"H. c #FCBFA1",
"J. c #FDC09F",
"K. c #FFC3A2",
"L. c #FFC9A6",
"P. c #FFCCA8",
"I. c #FFD2AD",
"U. c #C8BEC4",
"Y. c #A5C8D6",
"T. c #C1C5D0",
"R. c #FDD6C6",
"E. c #DEE1E9",
"W. c #E0E0E8",
"Q. c #E7E1E5",
"!. c #E7EAF2",
"~. c #EEF3FC",
"^. c None",
/* pixels */
"^.^.^.^.^.^.^.^.^.^.^.$ & & $ $ $ $ $ $ $ $ & $ ^.^.^.^.^.^.^.^.^.^.^.",
"^.^.^.^.^.^.^.^.^.^.^.k k k < < < < < < < k k < ^.^.^.^.^.^.^.^.^.^.^.",
"^.^.^.^.^.^.^.^.^.X > b m n n n n n n n n n m b > X ^.^.^.^.^.^.^.^.^.",
"^.^.^.^.^.^.^.^.> < b m H H H H G H H G H H H m b < > ^.^.^.^.^.^.^.^.",
"^.^.^.^.^.^.^.* k M H m m m m m G m m m m m H N G M k * ^.^.^.^.^.^.^.",
"^.^.^.^.^.^.# * z H B d d c G G G m N m N n d h B G z * $ ^.^.^.^.^.^.",
"^.^.^.^.^.^.^.* l n H c c n G G m G m m m n c c H n l * ^.^.^.^.^.^.^.",
"^.^.^.^.^.^.^.* a g / a.a.! u i s s s i u ! a.a./ g a * ^.^.^.^.^.^.^.",
"^.^.^.^.^.^.^.* t p *.C.J.6.h v R L R v j 6.C.C.*.p t * ^.^.^.^.^.^.^.",
"^.^.^.^.^.^.^.  - y *.Z.I.C.x.j.j.j.j.j.j.V.P.J.,.y -   ^.^.^.^.^.^.^.",
"^.^.^.^.^.^.0 Z x s &.m.J.J.J.L.L.L.K.K.K.K.J.m.&.f x q 0 ^.^.^.^.^.^.",
"^.^.^.^.^., 5.x.d.Q V / $.$.7.N.K.P.L.B.7.$.$./ L E a.x.4., ^.^.^.^.^.",
"^.^.^.^.  , x.L.B./ i S x + V q.K.P.K.h.x + V P i / B.L.x.,   ^.^.^.^.",
"^.^.^.^.  , c.L.N.W Q j.h.I 2 h.P.I.L.h.2 I l.j.E E B.P.c.,   ^.^.^.^.",
"^.^.^.^.^., 8.m.j.~ ,.H.Z...= 7.A.Z.C.8.= ..Z.K.,.~ h.m.8., ^.^.^.^.^.",
"^.^.^.^.^.^.Y T o.| q.K.C.X.  ` 2.0.2.`   X.C.L.q.| o.T Y ^.^.^.^.^.^.",
"^.^.^.^.^.^.^.  3 ' 2.n.M.7.@.:.0.q.2.:.@.8.m.n.2.' 5   ^.^.^.^.^.^.^.",
"^.^.^.^.^.^.^.      w <.q.M.H.K.Z.Z.Z.H.H.V.q.+.w       ^.^.^.^.^.^.^.",
"^.^.^.^.^.^.X.;.p.i.u.} O.l.V.M.n.n.n.A.V.l.O.} u.i.p.;.X.^.^.^.^.^.^.",
"^.^.^.^.^.X 5.J.R.Q.Y.&.4 ` =.O.<.<.<.+.=.` 4 &.T.Q.R.C.5.X ^.^.^.^.^.",
"^.^.^.^.#.9.q.b.G.U.f.E o 7 [ s.S.F.S.s.[ 7 o ^ f.T.G.b.z.7...^.^.^.^.",
"^.^.  Z 9.J.A.2.' Z : 2 F 8 %.D.Q.!.W.D.%.8 9 V : C ' 3.n.H.l.Z   ^.^.",
"^.^.  K V.I.J.n.:.3   F ` ) %.U.!.~.!.U.%.) ` F   o :.b.L.P.m.K   ^.^.",
"^.^.  Z 9.J.I.J.9.I @ F { _ %.U.W.!.E.U.%._ { F X I h.K.P.K.k.Z   ^.^.",
"^.^.^.^.#.7.k.9.#.0 + 6 A S e.g.Y.Y.Y.g.e.S A 6 + 0 #.9.k.7.#.^.^.^.^.",
"^.^.^.^.. X . . + % ; O x W w.y.r.r.r.y.w.W x ; ; % + . . X . ^.^.^.^.",
"^.^.^.^.^.^.^.^.X @ D ] O.-.>.( J J J ( >.-.O.] e @ X ^.^.^.^.^.^.^.^.",
"^.^.^.^.^.^.^.^.^.+ D O.+.1.+.r       r  .1.1.O.e + ^.^.^.^.^.^.^.^.^.",
"^.^.^.^.^.^.^.^.^.^.^.D U U e 9 ^.^.^.9 e U U D ^.^.^.^.^.^.^.^.^.^.^.",
"^.^.^.^.^.^.^.^.^.^.^.+ @ @ + ^.^.^.^.^.+ @ @ + ^.^.^.^.^.^.^.^.^.^.^."
};
