/* XPM */
static char *result[] = {
/* columns rows colors chars-per-pixel */
"35 30 192 2 ",
"   c black",
".  c #080000",
"X  c #190000",
"o  c #000013",
"O  c #00001C",
"+  c #03081E",
"@  c #270019",
"#  c #3A1617",
"$  c #000025",
"%  c #040B23",
"&  c #080D23",
"*  c #00022B",
"=  c #000C2A",
"-  c #0C1127",
";  c #0D1229",
":  c #12162C",
">  c #1A1624",
",  c #000A35",
"<  c #1B1E34",
"1  c #091633",
"2  c #370025",
"3  c #201A25",
"4  c #251F33",
"5  c #0E2130",
"6  c #1D2136",
"7  c #1E223A",
"8  c #152235",
"9  c #2E292D",
"0  c #36212F",
"q  c #22263E",
"w  c #2A2B3B",
"e  c #292736",
"r  c #372836",
"t  c #363438",
"y  c #430005",
"u  c #5F000E",
"i  c #7A0000",
"p  c #530023",
"a  c #471730",
"s  c #75182E",
"d  c #402224",
"f  c #52333B",
"g  c #662D35",
"h  c #69373D",
"j  c #78303B",
"k  c #000040",
"l  c #041E40",
"z  c #000052",
"x  c #000E54",
"c  c #001556",
"v  c #001A56",
"b  c #151E46",
"n  c #00244D",
"m  c #002457",
"M  c #012C5A",
"N  c #002658",
"B  c #05365A",
"V  c #1D345B",
"C  c #232740",
"Z  c #252943",
"A  c #292E49",
"S  c #2A2B43",
"D  c #3F2543",
"F  c #2D324D",
"G  c #2F3350",
"H  c #2C395D",
"J  c #21355B",
"K  c #313653",
"L  c #333856",
"P  c #3C3B54",
"I  c #363B5A",
"U  c #3A3F5E",
"Y  c #323D62",
"T  c #4C3E4B",
"R  c #573A40",
"E  c #4D2251",
"W  c #403F59",
"Q  c #6E3E42",
"!  c #773F42",
"~  c #00485C",
"^  c #3B405F",
"/  c #005568",
"(  c #005A71",
")  c #3C4161",
"_  c #246677",
"`  c #47485C",
"'  c #524554",
"]  c #604447",
"[  c #78504D",
"{  c #6D5554",
"}  c #795C56",
"|  c #794347",
" . c #484762",
".. c #544D64",
"X. c #6A5A68",
"o. c #645462",
"O. c #75616B",
"+. c #78636C",
"@. c #676E7B",
"#. c #883C36",
"$. c #863C43",
"%. c #885755",
"&. c #975857",
"*. c #944A4D",
"=. c #B0594E",
"-. c #A65E5C",
";. c #A25352",
":. c #8C6055",
">. c #A6655C",
",. c #A1715C",
"<. c #866C6F",
"1. c #87696A",
"2. c #966968",
"3. c #967263",
"4. c #99766B",
"5. c #9E796C",
"6. c #977368",
"7. c #886F72",
"8. c #8F7275",
"9. c #997A77",
"0. c #997A77",
"q. c #9B6A73",
"w. c #A96969",
"e. c #B86B63",
"r. c #A5786C",
"t. c #C1655A",
"y. c #C36B61",
"u. c #C7796D",
"i. c #C07B70",
"p. c #A6806D",
"a. c #AD867B",
"s. c #A78377",
"d. c #B38977",
"f. c #BE917A",
"g. c #D38675",
"h. c #C9977D",
"j. c #437285",
"k. c #707A85",
"l. c #2F8C9F",
"z. c #3FA1B6",
"x. c #748D9B",
"c. c #4E92A4",
"v. c #6F96A8",
"b. c #4FA8BD",
"n. c #59A7BB",
"m. c #84818D",
"M. c #8C929D",
"N. c #86929C",
"B. c #A9858A",
"V. c #B48C81",
"C. c #BA9185",
"Z. c #AE9A98",
"A. c #999DA5",
"S. c #A8AAB3",
"D. c #CD9D8A",
"F. c #C59886",
"G. c #D59780",
"H. c #E09E87",
"J. c #CEA08D",
"K. c #D4A28C",
"L. c #DBA58B",
"P. c #D9A58A",
"I. c #DEAA92",
"U. c #E2AB8E",
"Y. c #EEA68C",
"T. c #E5AE92",
"R. c #ECAD90",
"E. c #F7AF91",
"W. c #ECB495",
"Q. c #EDB69A",
"!. c #E7B096",
"~. c #F5B496",
"^. c #F5BB9D",
"/. c #FBBF9F",
"(. c #F6B798",
"). c #CFAAA4",
"_. c #C3B1B9",
"`. c #D0B8BF",
"'. c #FEC09F",
"]. c #FFC3A2",
"[. c #FFC9A6",
"{. c #FFCDA9",
"}. c #8FB4C4",
"|. c #9ABAC8",
" X c #A2C6D4",
".X c #CFD3DB",
"XX c #D2D5DD",
"oX c #EED2CA",
"OX c #DBDAE3",
"+X c #DEE0E8",
"@X c #EAE6ED",
"#X c None",
/* pixels */
"#X#X#X#X#X#X#X#X- - ; ; - - - - - - - - - : - - #X#X#X#X#X#X#X#X#X#X#X",
"#X#X#X#X#X#X#X#Xq C Z C q q q q q q q q q Z Z q 7 #X#X#X#X#X#X#X#X#X#X",
"#X#X#X#X#X#X& 7 G I U I U I I U I I P U I U U K q : o #X#X#X#X#X#X#X#X",
"#X#X#X#X#X7 C K I ) ) ) ^ ) ^ ) ^ ) ) ) ) ) ) U L A 7 6 #X#X#X#X#X#X#X",
"#X#X#X- 6 F I ) U U U U ^ U ^ U U U U U U U U U ^ ^ K 7 : & #X#X#X#X#X",
"#X#X#X- C G Y ) ) U ^ U U U U U ` U H M M J U ^ ) ) I A : & #X#X#X#X#X",
"#X#X#X- 7 G U ^ ^ U ^ U U U ^ ^ U U U H H I I ) ) ^ L C : & #X#X#X#X#X",
"#X#X#X- 7 G U ) ^ U U U U ^ Y I M U <.V.C.9.Y z c N m 1 : > #X#X#X#X#X",
"#X#X#X- 7 G U ) ) U U U U ^ U H c Y V.^.].D.O.M H  .P S - % #X#X#X#X#X",
"#X#X#X- 7 G I ) U U U ) U ) U H x I V.^.{.].I.J.K.J.a.} $   #X#X#X#X#X",
"#X#X#X- 7 G I ) ) U U U U I U H v ^ 0.I./.'./.'.{.[.U.3.O   #X#X#X#X#X",
"#X#X#X- 7 G I ) ^ U V m c x c m M ^ { +.6.4.5.F.Q.].T.6.O   #X#X#X#X#X",
"#X#X#X- 7 G U ) I ) ..X.O.O.O.X...^ P ' ' * $ { P.].!.6.O   #X#X#X#X#X",
"#X#X#X- q K ) Y N ` 9.D.!.Q.Q.D.7.^ <.D.P.5.1 { P.].W.4.O   #X#X#X#X#X",
"#X#X#X- < A K J x  .V.^.{.[.'.I.7.Y s.^.].f.f R h.~.U.3.O   #X#X#X#X#X",
"#X#X#X#X#X< 7 n z  .C.^.[.E.g.-.E v 0.Q.'.f.5 o >.g.e.%.* O #X#X#X#X#X",
"#X#X#X#X#X#X+ , , I 9.D.T.L.g.e.r.9.F.^.'.L.p.:.&.;.$.g = #X#X#X#X#X#X",
"#X#X#X#X#X#X#X#X* e K ..8.J.].]./.^./.[.[.].].T.d.f o #X#X#X#X#X#X#X#X",
"#X#X#X#X#X#X#X#X3 ; $ O b 4.P.W.~.~.!.L.G.U.Y.h.3.= #X#X#X#X#X#X#X#X#X",
"#X#X#X#X#X#X#X#X< : $     0 ] %.e.u.e.[ t 9 0 # #X#X#X#X#X#X#X#X#X#X#X",
"#X#X#X#X#X#X#X#X  7 @.M.A.@., X j *.$.p D k.M.M.k.#X#X#X#X#X#X#X#X#X#X",
"#X#X#X#X#X#X#X#X  w A.XXOXS.`   @ R g s q.S.OXXXA.w   #X#X#X#X#X#X#X#X",
"#X#X#X#X#X#X#X#X  e Z.oXoX).&.u 2 4 p i w.`.@X+XS.S   #X#X#X#X#X#X#X#X",
"#X#X#X#X#X#X#X#X  r d.Q.].R.u.=.Q ; 2 s q._.OXXXA.w   #X#X#X#X#X#X#X#X",
"#X#X#X#X#X#X#X#X  r f.(.[.[.(.h.:.* B j.v.}. X|.x.w   #X#X#X#X#X#X#X#X",
"#X#X#X#X#X#X#X#X  9 r.I.'.[.].U.,.r ( c.n.b.z.l._ 8 . #X#X#X#X#X#X#X#X",
"#X#X#X#X#X#X#X#X#X#X} 3.d.d.s.r.>.-.w.V.B.m.j./ ~ #X#X#X#X#X#X#X#X#X#X",
"#X#X#X#X#X#X#X#X#X#X#X        a *.e.y.e.=.#.y   #X#X#X#X#X#X#X#X#X#X#X",
"#X#X#X#X#X#X#X#X#X#X#X#X#X#X#X#Xh | | Q h g #X#X#X#X#X#X#X#X#X#X#X#X#X",
"#X#X#X#X#X#X#X#X#X#X#X#X#X#X#X#X$ $ * $ * #X#X#X#X#X#X#X#X#X#X#X#X#X#X"
};
