/* XPM */
static char *result[] = {
/* columns rows colors chars-per-pixel */
"35 30 194 2 ",
"   c #000000",
".  c #00000A",
"X  c #000016",
"o  c #00001A",
"O  c #2D0008",
"+  c #390000",
"@  c #28001D",
"#  c #38001C",
"$  c #000024",
"%  c #090F24",
"&  c #00012A",
"*  c #050529",
"=  c #0D1127",
"-  c #0F1229",
";  c #14182E",
":  c #1F1C2F",
">  c #000033",
",  c #0A1932",
"<  c #151B32",
"1  c #1A1C33",
"2  c #291929",
"3  c #361627",
"4  c #271E30",
"5  c #052539",
"6  c #1D223A",
"7  c #1D2037",
"8  c #2E202F",
"9  c #23273F",
"0  c #292B3B",
"q  c #3A2332",
"w  c #500000",
"e  c #422C3A",
"r  c #4B2D3B",
"t  c #482837",
"y  c #572D3A",
"u  c #4C323F",
"i  c #47303C",
"p  c #52333F",
"a  c #553B3D",
"s  c #693B3B",
"d  c #7C353D",
"f  c #7F3C38",
"g  c #662828",
"h  c #000B55",
"j  c #001556",
"k  c #00224B",
"l  c #002C59",
"z  c #002655",
"x  c #02335C",
"c  c #00395E",
"v  c #0C375A",
"b  c #1C365B",
"n  c #16314A",
"m  c #252943",
"M  c #272B46",
"N  c #2D324E",
"B  c #2D3D5E",
"V  c #2E3451",
"C  c #313552",
"Z  c #343956",
"A  c #363C5B",
"S  c #3A3F5E",
"D  c #3E3459",
"F  c #003960",
"G  c #203D60",
"H  c #383F60",
"J  c #553542",
"K  c #463D50",
"L  c #533B5A",
"P  c #643B45",
"I  c #6B3E45",
"U  c #653D49",
"Y  c #7C3B44",
"T  c #733F48",
"R  c #21425E",
"E  c #3C405F",
"W  c #3C4161",
"Q  c #2A4B67",
"!  c #53434B",
"~  c #43415C",
"^  c #4C445B",
"/  c #5A4758",
"(  c #614A46",
")  c #624B49",
"_  c #764246",
"`  c #75404A",
"'  c #7C4449",
"]  c #694B5F",
"[  c #764752",
"{  c #6C5350",
"}  c #7D5E54",
"|  c #775857",
" . c #67534D",
".. c #565771",
"X. c #6D4D61",
"o. c #724F61",
"O. c #7A5060",
"+. c #416079",
"@. c #59607B",
"#. c #646F7E",
"$. c #79707D",
"%. c #786169",
"&. c #813B3A",
"*. c #934945",
"=. c #8F5B4E",
"-. c #854A54",
";. c #8C4C56",
":. c #8A5656",
">. c #9D5552",
",. c #93545D",
"<. c #985655",
"1. c #874A4A",
"2. c #AB584F",
"3. c #A3564E",
"4. c #AB5C54",
"5. c #AD5E59",
"6. c #A55C58",
"7. c #84655A",
"8. c #89695C",
"9. c #8C655C",
"0. c #9A725F",
"q. c #AF625D",
"w. c #BE685E",
"e. c #835462",
"r. c #925862",
"t. c #876B67",
"y. c #9B7778",
"u. c #986E62",
"i. c #AA6563",
"p. c #B56965",
"a. c #A37C6B",
"s. c #A47A65",
"d. c #AE6D71",
"f. c #A27077",
"g. c #C26C63",
"h. c #C16E68",
"j. c #CB7B6E",
"k. c #A8806D",
"l. c #AA8574",
"z. c #B48A76",
"x. c #B48779",
"c. c #C38370",
"v. c #C5967E",
"b. c #D8907C",
"n. c #006F82",
"m. c #2D6F81",
"M. c #4D6A82",
"N. c #5B758F",
"B. c #597E97",
"V. c #617C90",
"C. c #7F828C",
"Z. c #698497",
"A. c #528FA6",
"S. c #4E97AC",
"D. c #748FA0",
"F. c #7993A4",
"G. c #45A5B9",
"H. c #958086",
"J. c #8C9197",
"K. c #989191",
"L. c #8A8D96",
"P. c #B39185",
"I. c #8F96A0",
"U. c #A29DA6",
"Y. c #B4B4BE",
"T. c #ACB2BB",
"R. c #C49682",
"E. c #CA9A83",
"W. c #D99D84",
"Q. c #D5A289",
"!. c #DFAA8E",
"~. c #D9A388",
"^. c #EAA487",
"/. c #E5AE92",
"(. c #EBAD97",
"). c #F1AC91",
"_. c #EFB391",
"`. c #F3BA9C",
"'. c #F8B89A",
"]. c #CEBDBD",
"[. c #D8BBB7",
"{. c #F7BDA0",
"}. c #E8B2A2",
"|. c #FDC09F",
" X c #FFC6A5",
".X c #FFC9A7",
"XX c #FFCBAA",
"oX c #FFD1BC",
"OX c #B9BAC1",
"+X c #D1D5DF",
"@X c #F5DDD7",
"#X c #DDDEE6",
"$X c #EEE0E0",
"%X c None",
/* pixels */
"%X%X%X%X%X%X%X%X%X= = - = = - - = - = % - - - %X%X%X%X%X%X%X%X%X%X%X%X",
"%X%X%X%X%X%X%X%X%X6 9 m 9 9 9 9 9 9 9 9 9 m 9 6 %X%X%X%X%X%X%X%X%X%X%X",
"%X%X%X%X%X%X%Xo < N A A A A A A A A A D A S Z m = %X%X%X%X%X%X%X%X%X%X",
"%X%X%X%X%X%X7 9 N A W W W W E W E W E E W W S A M 6 %X%X%X%X%X%X%X%X%X",
"%X%X%X%X%X- 9 C A W S S S S A E E E A E E A E E A N < = %X%X%X%X%X%X%X",
"%X%X%X%X%X- M A W W E S E E E S E E E E E E E W W Z 6 % %X%X%X%X%X%X%X",
"%X%X%X%X%X= m Z W W S E A E E S E E E E E S E E W V 7 % %X%X%X%X%X%X%X",
"%X%X%X%X%X= m Z E W S W A E E A E A E A S S A E S V 7 = %X%X%X%X%X%X%X",
"%X%X%X%X%X- m C E W E S S S S E S S S S E S S W S C 7 = %X%X%X%X%X%X%X",
"%X%X%X%X%X  > b ~ W S S S S S S S S E S S S S W S k $   %X%X%X%X%X%X%X",
"%X%X%X%X%Xa ! ~ H S E S S S E S S S S S S S S H S ^ ! a %X%X%X%X%X%X%X",
"%X%X%X; a.Q.E.%.l b S S S S S S S S S S S S H l S y.Q.v.7.. %X%X%X%X%X",
"%X%X  1 E. X`.y.z l E S S S S S S S E S H H H j W E..X'.a.. %X%X%X%X%X",
"%X%X  1 E. X`.y.h z S S S S S S S S S S H K H h F P..X|.a.. %X%X%X%X%X",
"%X%X%X; a./.!.y.L D H H A W W E W A A W A G S D X.x./.Q.8.. %X%X%X%X%X",
"%X%X%X%X .} u.p.p.O.F x F b B E E W H v c F ~ r.p.p.8.| %X%X%X%X%X%X%X",
"%X%X%X%X%X  @ *.4.,.O.o.o.X.^ H B E / X.O.o.| 6.2.d     %X%X%X%X%X%X%X",
"%X%X%X%X%X.     w *.p.p.p.i.X.b F W e.p.h.p.q.&.O .   . %X%X%X%X%X%X%X",
"%X%X%X%X} s.P.L.L.y.q.4.5.:.U v z V [ <.4.2.i.H.L.K.l.0.( %X%X%X%X%X%X",
"%X%X  X s._.oX$X#XU.P + 3 4 1 < , < 1 4 3 + %.OX#X@XXX~.7.  %X%X%X%X%X",
"%X%Xu.z.~.^.(.].T.C.q # y r q 4 8 8 t J t O / I.OX[.(.^.b.a.} %X%X%X%X",
"  ) E.|.).j.3.( 5 9 J ` ;.-.U r e i T ;.-.T r 5 0 ' 5.b.'.`.z.<   %X%X",
"  { !.XX X).c.s   X J ` ` ' Y d d Y Y ' T J t     =.b.'.XX XE.7   %X%X",
"  ! R.|.XX|./.8.X * u u i U -.,.,.:.[ J J J J o ; l._.XX.X`.l.;   %X%X",
"%X%Xs.z.R.v.a.) o o - n Q M.Z.F.F.D.V.+.R 5 * o ; } z.R.v.a.8.%X%X%X%X",
"%X%XX o X X $ * : 2 q ^ @.A.S.G.G.G.A.N...~ 3 2 ; $ o X o o %X%X%X%X%X",
"%X%X%X%X%X%XX $ e 1.6.p.d.f.@.n.Q m.$.f.d.w.>.` < $ %X%X%X%X%X%X%X%X%X",
"%X%X%X%X%X%X%Xo t <.p.g.w.3.g     . f q.g.g.5.1.; %X%X%X%X%X%X%X%X%X%X",
"%X%X%X%X%X%X%X%X%XP _ _ _ s %X%X%X%Xa _ _ ' I a %X%X%X%X%X%X%X%X%X%X%X",
"%X%X%X%X%X%X%X%X%X$ $ & $ * %X%X%X%X%X$ & & $ %X%X%X%X%X%X%X%X%X%X%X%X"
};
