/* XPM */
static char *result[] = {
/* columns rows colors chars-per-pixel */
"35 30 184 2 ",
"   c #000000",
".  c #0A0000",
"X  c #000013",
"o  c #00011A",
"O  c #370000",
"+  c #3A1718",
"@  c #000025",
"#  c #0A0E24",
"$  c #00002B",
"%  c #02092B",
"&  c #060624",
"*  c #0D1127",
"=  c #0D132A",
"-  c #171729",
";  c #00073A",
":  c #161B31",
">  c #191D34",
",  c #271C31",
"<  c #361B2E",
"1  c #002732",
"2  c #1E2138",
"3  c #172D3E",
"4  c #392527",
"5  c #23263E",
"6  c #2C2937",
"7  c #372D38",
"8  c #372936",
"9  c #440015",
"0  c #630001",
"q  c #450024",
"w  c #530021",
"e  c #701E2F",
"r  c #670C27",
"t  c #4C3738",
"y  c #552C35",
"u  c #69343A",
"i  c #783838",
"p  c #722335",
"a  c #6D443A",
"s  c #000245",
"d  c #001649",
"f  c #000252",
"g  c #000F54",
"h  c #001356",
"j  c #001E56",
"k  c #002747",
"l  c #00354F",
"z  c #002356",
"x  c #002A59",
"c  c #002659",
"v  c #1C345B",
"b  c #17325A",
"n  c #232740",
"m  c #252942",
"M  c #292D49",
"N  c #2B304C",
"B  c #2F3A4B",
"V  c #373949",
"C  c #2B395D",
"Z  c #273558",
"A  c #323753",
"S  c #343957",
"D  c #363C5B",
"F  c #3A3F5E",
"G  c #393952",
"H  c #203760",
"J  c #383F60",
"K  c #443E56",
"L  c #4C3B45",
"P  c #673942",
"I  c #733C55",
"U  c #004A5C",
"Y  c #3C405F",
"T  c #00566B",
"R  c #3C4261",
"E  c #386D7F",
"W  c #246879",
"Q  c #564447",
"!  c #454557",
"~  c #544858",
"^  c #644546",
"/  c #784346",
"(  c #735957",
")  c #4A4761",
"_  c #494761",
"`  c #554D62",
"'  c #584F63",
"]  c #575165",
"[  c #625566",
"{  c #695A68",
"}  c #715C63",
"|  c #5B616B",
" . c #75616B",
".. c #7B656D",
"X. c #71757F",
"o. c #871729",
"O. c #822F3D",
"+. c #803341",
"@. c #884347",
"#. c #8F5252",
"$. c #A75A56",
"%. c #A85349",
"&. c #88645A",
"*. c #9A615B",
"=. c #A8615B",
"-. c #BD6257",
";. c #886964",
":. c #967367",
">. c #8C7074",
",. c #9A7876",
"<. c #876C70",
"1. c #A76A64",
"2. c #A8796B",
"3. c #BF7267",
"4. c #A77975",
"5. c #B56A64",
"6. c #C46A5F",
"7. c #C06B62",
"8. c #C87F71",
"9. c #C47469",
"0. c #AB826F",
"q. c #AE8573",
"w. c #A8847C",
"e. c #B38975",
"r. c #B88A76",
"t. c #BC907A",
"y. c #D58976",
"u. c #C7957C",
"i. c #2D768A",
"p. c #747B88",
"a. c #697682",
"s. c #A87E85",
"d. c #2E8B9E",
"f. c #3D9FB4",
"g. c #578093",
"h. c #76909D",
"j. c #579DAF",
"k. c #789EB0",
"l. c #52A9BC",
"z. c #9D878F",
"x. c #87919D",
"c. c #90959E",
"v. c #B58D81",
"b. c #BD9284",
"n. c #AD878B",
"m. c #B7A39F",
"M. c #9197A1",
"N. c #9EA1A9",
"B. c #A9ABB4",
"V. c #AEB1BA",
"C. c #C7998A",
"Z. c #CE9E8C",
"A. c #C69885",
"S. c #CFA08D",
"D. c #D3A28B",
"F. c #D4A289",
"G. c #DBA993",
"H. c #E2A189",
"J. c #E3AA8D",
"K. c #F1AA8F",
"L. c #E7AD92",
"P. c #ECB395",
"I. c #EEB699",
"U. c #E6B096",
"Y. c #F4B395",
"T. c #F1B699",
"R. c #F5BB9C",
"E. c #FBBC9B",
"W. c #FBB394",
"Q. c #D5B1AB",
"!. c #F9BFA0",
"~. c #FFC09F",
"^. c #FFC3A2",
"/. c #FFC9A6",
"(. c #FFCDA8",
"). c #97B9C8",
"_. c #CABDC4",
"`. c #A3C6D5",
"'. c #CFD3DA",
"]. c #D6CDD5",
"[. c #EFD2CB",
"{. c #DCDDE5",
"}. c #EBE8EF",
"|. c None",
/* pixels */
"|.|.|.|.|.|.|.|.|.* = = = = * * * * * * # = = = = * |.|.|.|.|.|.|.|.|.",
"|.|.|.|.|.|.|.|.2 n n m n 5 5 5 5 5 5 5 5 5 n m m 5 2 |.|.|.|.|.|.|.|.",
"|.|.|.|.|.|.o - n A F F D D D D D D D D D D S F D A m - o |.|.|.|.|.|.",
"|.|.|.|.|.2 2 M A F R R R R F R J R J ! R R R _ R F S M 5 2 |.|.|.|.|.",
"|.|.|.# > m S F J F F J F Y F J J K J F F F Y F F F Y F A m : # |.|.|.",
"|.|.|.# > N D R _ Y F Z x x v D J R F F F F F F F Y R R D N > # |.|.|.",
"|.|.|.# : m S R R J Y F C C J J J J J F F F F J Y F R Y S M : # |.|.|.",
"|.|.|.- : k z c h f C <.v.b.,.[ v Z F F F F F F F F R Y S M : # |.|.|.",
"|.|.|.& > V F ) C c { b.!.^.Z...z c D F F Y F F F F R F D M : # |.|.|.",
"|.|.|.  6 &.r.Z.D.S.G.!.(.^.D...j z D F F F F Y F R R Y S m > # |.|.|.",
"|.|.|.  7 q.P././.~.!.^.^.I.b. .z c F F F F F F F F R Y S M : # |.|.|.",
"|.|.|.  7 e.P.^.P.A.4.:.:.;.} ~ Z x j h g h z b F Y R F S M : # |.|.|.",
"|.|.|.  7 e.T.~.F.( $ $ L ~ ! F _ ' } } .. .{ ] R F J J S M : # |.|.|.",
"|.|.|.  7 t.R.^.F.( $ &.Z.D.w.' ` z.G.I.I.U.Z.,.` c H R D N > # |.|.|.",
"|.|.|.  7 4.L.Y.u.Q 6 e.E./.Z.] ) r.U.^./.(.R.b.[ g x D A m : # |.|.|.",
"|.|.|.o 6 *.8.y.=.o o 0.T.~.C.] f I 5.y.Y./.^.C.[ f d m : > |.|.|.|.|.",
"|.|.|.@ , u @.$.*.&.0.F.!.^.U.w.,.4.8.y.H.L.S.w.~ s ; = X |.|.|.|.|.|.",
"|.|.|.|.|.|.X ^ q.J.~.~./.^.^.!.R.!.^.Y.C.<.) G m % |.|.|.|.|.|.|.|.|.",
"|.|.|.|.|.|.|.1 :.u.J.G.F.F.J.K.Y.Y.U.A.:.d o @ % - |.|.|.|.|.|.|.|.|.",
"|.|.|.|.|.|.|.|.|.+ 4 4 6 ^ *.9.9.5.( P <     o = 2 |.|.|.|.|.|.|.|.|.",
"|.|.|.|.|.|.|.|.p.x.x.X.K q p @.@.r   l a.M.M.X.V   |.|.|.|.|.|.|.|.|.",
"|.|.|.|.|.|.  Y N.'.].].s.O.e P t     | V.{.'.B.!   |.|.|.|.|.|.|.|.|.",
"|.|.|.|.|.|.  Y V.{.}.].s.o.0 y , 9 r 1.Q.[.[.m.Q   |.|.|.|.|.|.|.|.|.",
"|.|.|.|.|.|.  Y N.'.{.Q.s.+.q % 8 +.-.y.K.!.T.t.Q   |.|.|.|.|.|.|.|.|.",
"|.|.|.|.|.|.  B h.).`.).k.i.T ; y 2.H.E././.R.u.Q   |.|.|.|.|.|.|.|.|.",
"|.|.|.|.|.|.. 3 W d.j.l.l.j.i.l a r.T.^./.^.J.q.t   |.|.|.|.|.|.|.|.|.",
"|.|.|.|.|.|.|.|.U T E h.n.n.4.1.$.=.2.q.e.q.:.&.|.|.|.|.|.|.|.|.|.|.|.",
"|.|.|.|.|.|.|.|.|.  O O.%.6.7.7.=.@.&         |.|.|.|.|.|.|.|.|.|.|.|.",
"|.|.|.|.|.|.|.|.|.|.|.y u i / / a y |.|.|.|.|.|.|.|.|.|.|.|.|.|.|.|.|.",
"|.|.|.|.|.|.|.|.|.|.|.|.% $ $ % @ |.|.|.|.|.|.|.|.|.|.|.|.|.|.|.|.|.|."
};
