/* XPM */
static char *result[] = {
/* columns rows colors chars-per-pixel */
"45 45 191 2 ",
"   c black",
".  c #170607",
"X  c #1A1C1D",
"o  c #240000",
"O  c #3C0200",
"+  c #310000",
"@  c #3D130E",
"#  c #001F21",
"$  c #1A1F20",
"%  c #112022",
"&  c #0E2224",
"*  c #272424",
"=  c #272F30",
"-  c #323738",
";  c #373838",
":  c #2A3738",
">  c #430100",
",  c #410800",
"<  c #490F04",
"1  c #4D160D",
"2  c #441D0E",
"3  c #481503",
"4  c #571300",
"5  c #561B0F",
"6  c #471F1B",
"7  c #561D12",
"8  c #5C1F16",
"9  c #671E00",
"0  c #621B0B",
"q  c #641603",
"w  c #651F12",
"e  c #562000",
"r  c #592200",
"t  c #4A211D",
"y  c #44211F",
"u  c #56291F",
"i  c #5F2719",
"p  c #652809",
"a  c #63241A",
"s  c #6D2F1A",
"d  c #6A2B15",
"f  c #6D311C",
"g  c #442521",
"h  c #482622",
"j  c #532A26",
"k  c #552D29",
"l  c #592E29",
"z  c #582923",
"x  c #5C322D",
"c  c #4A2F31",
"v  c #5A3637",
"b  c #56383B",
"n  c #662C24",
"m  c #61342F",
"M  c #6D342B",
"N  c #6E3320",
"B  c #7A342A",
"V  c #643631",
"C  c #6A3731",
"Z  c #673833",
"A  c #6C3B36",
"S  c #6F3E39",
"D  c #703D35",
"F  c #713E38",
"G  c #7A433D",
"H  c #593E4B",
"J  c #36435B",
"K  c #3B475E",
"L  c #3E4A5F",
"P  c #3E4B62",
"I  c #3A4E6A",
"U  c #47494A",
"Y  c #5C424E",
"T  c #494B5F",
"R  c #5C4857",
"E  c #555555",
"W  c #5A5A5A",
"Q  c #535758",
"!  c #724844",
"~  c #7C5B54",
"^  c #715654",
"/  c #6D5354",
"(  c #7B625E",
")  c #414D64",
"_  c #414F6A",
"`  c #534F61",
"'  c #445066",
"]  c #435169",
"[  c #49556B",
"{  c #5C5263",
"}  c #515B6F",
"|  c #4C5972",
" . c #5E5F75",
".. c #615464",
"X. c #68576C",
"o. c #645D71",
"O. c #6B5D72",
"+. c #596376",
"@. c #5B667A",
"#. c #556178",
"$. c #6B6767",
"%. c #7C6866",
"&. c #7E706E",
"*. c #6E6175",
"=. c #6E697B",
"-. c #776878",
";. c #6F7171",
":. c #7B7B7B",
">. c #757979",
",. c #813013",
"<. c #843F2E",
"1. c #834741",
"2. c #854841",
"3. c #9F5140",
"4. c #9D564E",
"5. c #945149",
"6. c #A0584F",
"7. c #81615B",
"8. c #826663",
"9. c #86716F",
"0. c #8A6A7A",
"q. c #887472",
"w. c #897978",
"e. c #556582",
"r. c #5B6781",
"t. c #5E6D8A",
"y. c #5C6A86",
"u. c #626E86",
"i. c #606F8C",
"p. c #62708D",
"a. c #697488",
"s. c #7B7080",
"d. c #647493",
"f. c #6B7593",
"g. c #6D7A93",
"h. c #6D7D9E",
"j. c #737E94",
"k. c #717F9B",
"l. c #6A7EA0",
"z. c #867C89",
"x. c #7E8594",
"c. c #6E81A2",
"v. c #7282A3",
"b. c #7A87A3",
"n. c #7B89A4",
"m. c #7D8BA9",
"M. c #828383",
"N. c #8C8C8C",
"B. c #87858E",
"V. c #938989",
"C. c #8F918F",
"Z. c #828C9E",
"A. c #949392",
"S. c #9B9B9B",
"D. c #9B9797",
"F. c #A39E9E",
"G. c #848EA1",
"H. c #8690A2",
"J. c #8592AD",
"K. c #8995AD",
"L. c #8E99AC",
"P. c #939BAB",
"I. c #989EAA",
"U. c #8795B0",
"Y. c #8996B1",
"T. c #8C99B4",
"R. c #909CB5",
"E. c #909EB9",
"W. c #96A0B6",
"Q. c #94A1BC",
"!. c #9BA6BD",
"~. c #9FAABF",
"^. c #A3A3A3",
"/. c #ACACAC",
"(. c #AFB2B2",
"). c #B3B3B3",
"_. c #BBBBBB",
"`. c #97A5C2",
"'. c #9FABC1",
"]. c #9AA9C6",
"[. c #A3ADC2",
"{. c #A6B0C5",
"}. c #A9B2C7",
"|. c #AAB4C9",
" X c #A6B3C9",
".X c #C4C4C5",
"XX c #CACBCB",
"oX c #D2D2D2",
"OX c #FDFDFD",
"+X c #E9E9E9",
"@X c None",
/* pixels */
"@X@X@X@X@X@X@X@X@X@X@X@X@X@X@X@X@X@X@X@X@X@X@X@X@X@X@X@X@X@X@X@X@X@X@X@X@X@X@X@X@X@X@X@X@X",
"@X@X@X@X@X@X@X@X@X@X@X@X@X@X@X@X@X@X@X@X@X@X@X@X@X@X@X@X@X@X@X@X@X@X@X@X@X@X@X@X@X@X@X@X@X",
"@X@X@X@X@X@X@X@X@X@X@X@X@X@X@X@X@X@X@X@X@X@X@X@X@X@X@X@X@X@X@X@X@X@X@X@X@X@X@X@X@X@X@X@X@X",
"@X@X@X@X@X@X@X@X@X@X@X@X@X@X@X@X@X@X@X@X@X@X@X@X@X@X@X@X@X@X@X@X@X@X@X@X@X@X@X@X@X@X@X@X@X",
"@X@X@X@X@X@X@X@X@X@X@X@X@X@X@X@X@X@X@X@X@X@X@X@X@X@X@X@X@X@X@X@X@X@X@X@X@X@X@X@X@X@X@X@X@X",
"@X@X@X@X@X@X@X@X@X@X@X@X@X@X@X@X@X@X@X@X@X@X@X@X@X@X@X@X@X@X@X@X@X@X@X@X@X@X@X@X@X@X@X@X@X",
"@X@X@X@X@X@X@X@X@X@X@X@X@X@X@X@X@X@XU.].E.E.E.E.E.].K.@X@X@X@X@X@X@X@X@X@X@X@X@X@X@X@X@X@X",
"@X@X@X@X@X@X@X@X@X@X@X@X@X@X@X@X@X@XT.`.U.Y.Y.Y.Y.`.Y.@X@X@X@X@X@X@X@X@X@X@X@X@X@X@X@X@X@X",
"@X@X@X@X@X@X@X@X@X@XU.U.Y.Y.J.T.n.) b.T.K.J.J.K.K.T.b.) n.T.J.Y.U.U.U.@X@X@X@X@X@X@X@X@X@X",
"@X@X@X@X@X@X@X@X@X@XE.].`.E.E.`.K.[ G.E.R.R.R.R.R.Q.n.| K.!.`.E.Q.`.E.@X@X@X@X@X@X@X@X@X@X",
"@X@X@X@X@X@X@X@X@X@XK.T.Y.K.U.T.b.) L.|.[.}.[.[.{.|.L.) n.T.Y.K.U.T.K.@X@X@X@X@X@X@X@X@X@X",
"K j.T.U.U.U.U.T.u.#.J.U.J.J.J.U.n.) k.U.J.J.m.J.J.Y.j.) b.U.J.J.J.U.J.#.u.T.U.U.U.U.T.j.K ",
") b.`.Q.Q.Q.Q.`.g.@.E.!.W.W.Q.!.L.[ y.h.h.h.h.h.h.l.y.[ K.!.W.W.W.!.W.@.f.`.Q.Q.Q.Q.].b.) ",
"K j.T.U.U.U.K.T.u.@.[.[.[.[.[.[.R.[ i.v.h.v.h.h.h.v.t.[ R.}.[.{.[.[.[.@.u.T.U.U.U.U.U.j.K ",
"K g.U.J.J.J.U.U.u.| b.n.m.n.n.m.k.] p.v.l.h.v.h.h.v.i.) k.m.m.n.v.m.b.| u.U.U.J.J.J.U.j.K ",
"J G.[.!.!.!.!.[.j._ h.h.h.h.h.h.d.] f.v.c.v.v.v.v.v.d._ d.h.h.h.h.h.h._ j.[.!.!.!.!.'.G.J ",
"J G.[.~.'.].~.[.j.] h.v.l.c.c.v.f.' =.f.f.f.a.f.f.f.r.` d.v.h.v.v.c.c.' j.[.~.~.~.[.[.G.J ",
"L i.n.v.v.x.v.v.@.| c.v.v.v.v.v.f.b g c v v v v v c h b f.l.h.v.v.v.c.| @.v.v.v.k.v.v.i.K ",
"P y.v.h.h.h.h.c. .H ....{ ` ....R l 2 2 u u u u u 2 2 l { ....` { ..R H +.v.l.h.h.h.h.i.T ",
"T i.v.l.v.l.v.v.o.4 r r 3 O r r i m c j m m v V m j k V a p r O 3 e e 4 o.v.h.v.h.v.v.i.K ",
"P y.x.l.c.g.h.c. .4 x x j g Z S S S m V S A A D A V V A S A Z h k x k r o.l.h.h.h.k.k.i.) ",
"I ) I I ' I I I H p n a i x Z S A S m m G S F F F V V S A S Z x V C A C Y I ) ) I _ _ ) ) ",
") a.H.Z.H.n.Z.n.z.%.%.w.9.z C D A A V k 6 O O O o   O F S A A x C S S s -.H.G.Z.Z.G.H.a.P ",
"J G.|.[.].(.{.{.I.N.S.).D.5 C A A S m y & U U Q >.:.$.a C F Z x C A A 9 B. X[.{.[.[.|.H.J ",
"T t.v.v.v.v.x.c.x.S./.).A.7 C F D D @ X W ^./._.OXOXoX  8 G A x Z S A s *.v.v.v.v.v.v.i.L ",
"P y.v.h.k.h.l.l.-.7.q.w.( l Z F m y - &.S.>.$.:.^./..XoX$.> A x V S A s O.c.h.l.h.h.v.t.P ",
"P t.v.l.v.h.l.v.O.q w 0 a v A F m   ; M./.;         /.OX:.  F x Z A M d *.c.l.h.k.h.v.t.T ",
"P i.v.k.h.l.v.c.*.s D A Z x Z F V . J N./.W   * $ $ ).OXM.+ C x Z F F s *.v.v.h.l.x.c.t.P ",
") d.v.v.v.v.v.v.*.f A F m x Z z * E N././.F.S.S.S.S./..X+X).  x w 9.I.7.O.v.v.h.c.v.v.d.L ",
") | e.@.e.e.e.e...M S A Z x S 6 # W S.(./.).)._._.).^./.OXXX  k q q./.8.R e.e.e.e.e.e.| ) ",
") } +.+.+.+.@.@./ M A A Z x S t % E D.)./.).^.I.F.^./.).OX.X  l 0 9./.7.H @.+.+.+.+.@.} _ ",
"J G.}.[.~.[.[. Xz.9 A S Z x S t % E S.)./.).M.  * A./.).OXXX  k 0 9./.~ z. X[.[.[.[.|.H.J ",
"K j.R.U.J.U.Y.T.s.p A S V x D 6 % Q S.(./.).:.    C.)./.oXS.  k 0 9./.~ -.T.U.U.U.U.T.k.K ",
") y.l.h.h.h.h.h.O.N A F V x F t $ E S.)./.).w.    C.)././.>.  x 0 9.(.7.X.l.h.h.h.h.h.y.T ",
") i.h.h.h.v.c.v.O.f A A V x S 6 # E D.)./.).M.    C.)./.).M.  k 0 q./.7.X.c.c.c.h.l.v.i.P ",
") i.v.h.h.v.l.c.*.f A S Z x S t $ E S.(././.^.S.S./.(./.).M.  l m ! 7.D O.c.k.c.h.h.v.i.K ",
"T y.v.h.v.v.h.v.*.s A A V x S 6 # W S.).).).).).).).(.(._.z.  k A A a p -.v.c.c.h.k.v.i.L ",
"P y.h.f.h.g.f.h.O.s A A C x A j * U A./.^.^.^.^.^.^.^.^.^.>.. l C S S f O.h.f.g.g.h.h.y.P ",
") P P P P P P I H N M n n x C A v X = ; - - - - - - - - : b Z x Z S A M Y I P L I P P P ) ",
"P j.L.L.K.L.H.L.z.9.&.V.w.z C F Z k 3 O 1 1 1 1 1 , , 1 < n S x V S A d -.P.L.K.L.L.P.j.K ",
"J G.{.[.[.[.[.[.P.A.D.).D.5 C A A F V Z F F F F F V V F F D A x V S A 9 z.[.'.[.~.[.[.G.J ",
"P i.v.h.h.h.l.l.x.A././.A.7 C D S A m m A S A A A V x A A A A x V S A f *.v.l.v.h.h.h.i.) ",
") y.v.h.h.h.h.v.=.^ 8.%.^ z C C Z Z m m Z Z A Z A x m A C A C x V Z A d O.c.h.h.h.l.v.i.) ",
"P i.v.h.h.l.h.v.-.,.B <.B V ! 1.1.1.Z Z 1.1.1.1.1.Z V 1.1.1.G v F 2.1.<.-.c.h.v.h.h.v.i.K ",
"T y.c.l.h.h.h.l.0.3.4.6.2.v 5.6.4.4.A F 4.4.4.4.4.F S 4.4.6.5.x 2.6.4.3.0.c.h.h.h.k.h.i.) "
};
