/* XPM */
static char *result[] = {
/* columns rows colors chars-per-pixel */
"55 55 47 1 ",
"  c #361E2F",
". c #351E33",
"X c #381F31",
"o c #372032",
"O c #3A2133",
"+ c #36203D",
"@ c #3C233D",
"# c #5E332F",
"$ c #402537",
"% c #4E2D36",
"& c #43273C",
"* c #45283C",
"= c #4B2B3B",
"- c #522E37",
"; c #522E39",
": c #573137",
"> c #5A3336",
", c #553039",
"< c #5C343B",
"1 c #63372F",
"2 c #67392F",
"3 c #693B2F",
"4 c #623631",
"5 c #663931",
"6 c #6A3C32",
"7 c #653A39",
"8 c #6B3E3A",
"9 c #713F36",
"0 c #6F4033",
"q c #6F403E",
"w c #734235",
"e c #794636",
"r c #7D4936",
"t c #76463C",
"y c #78473C",
"u c #7A493C",
"i c #472940",
"p c #4A2B40",
"a c #533040",
"s c #824D37",
"d c #834D39",
"f c #884F3C",
"g c #8D543B",
"h c #91573C",
"j c #92583C",
"k c #9B5C40",
"l c None",
/* pixels */
"lllllllllllllllllllllllllllllllllllllllllllllllllllllll",
"lllllllllllllllllllllllllllllllllllllllllllllllllllllll",
"lllllllllllllllllllllllllllllllllllllllllllllllllllllll",
"lllllllllllllllllllllllllllllllllllllllllllllllllllllll",
"lllllllllllllllllllllllllllllllllllllllllllllllllllllll",
"lllllllllllllllllllllllllllllllllllllllllllllllllllllll",
"lllllllllllllllllllllllllllllllllllllllllllllllllllllll",
"lllllllllllllllllllllllllllllllllllllllllllllllllllllll",
"llllllllllllllllllllllghhhgllllllllllllllllllllllllllll",
"llllllllllllllllllllllkkhkgllllllllllllllllllllllllllll",
"lllllllllllllllllllllljg66rjlllllllllllllllllllllllllll",
"llllllllllllllllllllleuw>#egtllllllllllllllllllllllllll",
"llllllllllllllllllll4>;>6466,*>rhhjhhhhhhghllllllllllll",
"llllllllllllllllllllew@-3324;a7rgggggggghkgflllllllllll",
"lllllllghhjd546gjhhhju&>3362;=4306666660060rjhhhlllllll",
"llllllgghghd86wghgggft-->>>>==4244444444##4rhghgrllllll",
"llllljf6505055506666365:&===&=46555655555556666065lllll",
"llllldf4##445544441>:>1>=&@@@=,>54::>555555441#495lllll",
"lllll6w5555555555534=%53>=@*&&*:5,&&,6155555555586lllll",
"lllll463554144#55564,>615:%--;;>6:%;>4154241544462lllll",
"lllll581544454555555546551114145555555454554544482lllll",
"lllll58350rrrre05555651wrrrrrr015331wrrrrrrrrrrre4lllll",
"lllll505#0fjjjg04655545sjjhhjfw15551eghgggjgghhhs4lllll",
"lllll40550rsrsr<-:4514:qutttut>->>::7tutyytuutttw4lllll",
"lllll5835555535=@*>33>******=***=****=**p=ii**&=76lllll",
"lllll591551414#:,,413>,-%,-%%;,=@@@&@@@@@++.@%--84lllll",
"lllll48355545555555555555555553>*&**&***&*=&=46595lllll",
"lllll662365353633663533633333365:>>::>>:>::>>::>4llllll",
"lllll5825555555555555555555554555555555555564=i&lllllll",
"lllll693>,::::::::::::::>::::>,>:::::::,,:>>;*iilllllll",
"lllll692,@*&**&*&&***&**&&*&*&********&*&*&&**p*lllllll",
"llllll>:<><;&&&&&&i*iiiiiiiiii&=:>>:>>>>>;&&*p&Olllllll",
"lllllll*<36>*&********=&&***=&@,555555555>*&*=@llllllll",
"lllllll.-<<,ppipp*& OXOOOOOOOO&a<<<<<<<<<,pp*@lllllllll",
"llllllllOi&&**&*=&.lllllllllll&*&&&*&&&&&i&*&llllllllll",
"lllllllll...XXXXOOllllllllllll O........oooO llllllllll",
"lllllllllllllllllllllllllllllllllllllllllllllllllllllll",
"lllllllllllllllllllllllllllllllllllllllllllllllllllllll",
"lllllllllllllllllllllllllllllllllllllllllllllllllllllll",
"lllllllllllllllllllllllllllllllllllllllllllllllllllllll",
"lllllllllllllllllllllllllllllllllllllllllllllllllllllll",
"lllllllllllllllllllllllllllllllllllllllllllllllllllllll",
"lllllllllllllllllllllllllllllllllllllllllllllllllllllll",
"lllllllllllllllllllllllllllllllllllllllllllllllllllllll",
"lllllllllllllllllllllllllllllllllllllllllllllllllllllll",
"lllllllllllllllllllllllllllllllllllllllllllllllllllllll",
"lllllllllllllllllllllllllllllllllllllllllllllllllllllll",
"lllllllllllllllllllllllllllllllllllllllllllllllllllllll",
"lllllllllllllllllllllllllllllllllllllllllllllllllllllll",
"lllllllllllllllllllllllllllllllllllllllllllllllllllllll",
"lllllllllllllllllllllllllllllllllllllllllllllllllllllll",
"lllllllllllllllllllllllllllllllllllllllllllllllllllllll",
"lllllllllllllllllllllllllllllllllllllllllllllllllllllll",
"lllllllllllllllllllllllllllllllllllllllllllllllllllllll",
"lllllllllllllllllllllllllllllllllllllllllllllllllllllll"
};
